<svg xmlns="http://www.w3.org/2000/svg" viewBox="0 0 512 512">
  <defs>
    <linearGradient id="bg" x1="0" y1="0" x2="1" y2="1"><stop offset="0" stop-color="#ffb066"/><stop offset=".55" stop-color="#ff5e8a"/><stop offset="1" stop-color="#b24bf3"/></linearGradient>
    <linearGradient id="gloss" x1="0" y1="0" x2="0" y2="1"><stop offset="0" stop-color="#fff" stop-opacity=".75"/><stop offset="1" stop-color="#fff" stop-opacity="0"/></linearGradient>
    <radialGradient id="glow" cx=".85" cy="1.05" r=".9"><stop offset="0" stop-color="#fff" stop-opacity=".45"/><stop offset="1" stop-color="#fff" stop-opacity="0"/></radialGradient>
  </defs>
  <rect width="512" height="512" rx="116" fill="url(#bg)"/>
  <rect width="512" height="512" rx="116" fill="url(#glow)"/>
  <path d="M30 150C30 78 78 30 150 30h212c72 0 120 48 120 120v20C380 230 140 230 30 170Z" fill="url(#gloss)" opacity=".8"/>
  <rect x="3" y="3" width="506" height="506" rx="113" fill="none" stroke="#fff" stroke-opacity=".45" stroke-width="6"/>
  <g transform="translate(106 106) scale(12.5)" fill="none" stroke="#fff" stroke-width="1.7" stroke-linecap="round" stroke-linejoin="round" style="filter:drop-shadow(0 6px 8px rgba(120,20,80,.35))">
    <path d="M9.5 4.2A3 3 0 0 0 6.6 7a3 3 0 0 0-1.9 4.9 3.2 3.2 0 0 0 1.5 5.6A3 3 0 0 0 12 18.5V6.4a2.4 2.4 0 0 0-2.5-2.2Z"/>
    <path d="M14.5 4.2A3 3 0 0 1 17.4 7a3 3 0 0 1 1.9 4.9 3.2 3.2 0 0 1-1.5 5.6A3 3 0 0 1 12 18.5"/>
  </g>
</svg>
